<?xml version="1.0" encoding="utf-8"?>
<!-- Generator: Adobe Illustrator 22.1.0, SVG Export Plug-In . SVG Version: 6.00 Build 0)  -->
<svg version="1.1" id="图层_1" xmlns="http://www.w3.org/2000/svg" xmlns:xlink="http://www.w3.org/1999/xlink" x="0px" y="0px"
	 viewBox="0 0 595.3 841.9" style="enable-background:new 0 0 595.3 841.9;" xml:space="preserve">
<style type="text/css">
	.st0{fill:#FFFFFF;}
	.st1{fill:#1296DB;}
	.st2{clip-path:url(#SVGID_2_);fill:#1296DB;}
</style>
<g>
	<rect x="1042.6" y="170.5" class="st0" width="738" height="750"/>
	<g>
		<path class="st1" d="M1451.8,787.5c0-0.2,0-0.4,0-0.6C1451.8,787.1,1451.8,787.3,1451.8,787.5L1451.8,787.5z M1451.8,787.5"/>
		<g>
			<defs>
				<rect id="SVGID_1_" x="995.4" y="135.4" width="819.8" height="820.7"/>
			</defs>
			<clipPath id="SVGID_2_">
				<use xlink:href="#SVGID_1_"  style="overflow:visible;"/>
			</clipPath>
			<path class="st2" d="M1451.2,773c0-0.2,0-0.3,0-0.4C1451.2,772.7,1451.2,772.8,1451.2,773L1451.2,773z M1451.2,773"/>
			<path class="st2" d="M1763.3,135.9h-716.8c-28.2,0-51.2,23-51.2,51.2v716.8c0,28.2,23,51.2,51.2,51.2h716.8
				c28.2,0,51.2-23,51.2-51.2V187.1C1814.5,158.9,1791.5,135.9,1763.3,135.9L1763.3,135.9z M1148.9,315.1
				c0-14.1,11.5-25.6,25.6-25.6c14.1,0,25.6,11.5,25.6,25.6v51.2c0,14.1-11.5,25.6-25.6,25.6c-14.1,0-25.6-11.5-25.6-25.6V315.1z
				 M1763.3,903.9h-300.1c-5.3-33.7-8.7-68.4-10.7-102.1c0,0.1,0,0.2,0,0.3c-15.8,1.7-31.7,2.6-47.7,2.6
				c-106.9,0-209.9-38.9-290-109.6c-11.9-10.5-13.1-28.7-2.5-40.7c10.5-11.9,28.7-13.1,40.7-2.5c69.6,61.4,159,95.2,251.9,95.2
				c15.3,0,30.4-0.9,45.5-2.7c-1.8-94.6,5.5-169.5,5.6-170.7c0.7-7.2-1.6-14.4-6.5-19.7c-4.9-5.4-11.8-8.4-19-8.4h-76.1
				c1.1-27.7,4.1-75.1,12-128.2c15.1-101.4,41.6-180.6,76.9-230.2h320.1L1763.3,903.9L1763.3,903.9z M1763.3,903.9"/>
		</g>
		<path class="st1" d="M1635.3,391.9c-14.1,0-25.6-11.5-25.6-25.6v-51.2c0-14.1,11.5-25.6,25.6-25.6c14.1,0,25.6,11.5,25.6,25.6
			v51.2C1660.9,380.4,1649.5,391.9,1635.3,391.9L1635.3,391.9z M1635.3,391.9"/>
		<path class="st1" d="M1427.7,804.1c-2.9,0.2-5.8,0.3-8.8,0.4C1421.9,804.3,1424.8,804.2,1427.7,804.1L1427.7,804.1z M1427.7,804.1
			"/>
		<path class="st1" d="M1404.9,804.7c3.8,0,7.5-0.1,11.2-0.2C1412.4,804.7,1408.7,804.7,1404.9,804.7L1404.9,804.7z M1404.9,804.7"
			/>
		<path class="st1" d="M1426.6,746.5c0.6,0,1.3-0.1,1.9-0.1C1427.8,746.4,1427.2,746.4,1426.6,746.5L1426.6,746.5z M1426.6,746.5"/>
		<path class="st1" d="M1415.4,747c0.9,0,1.7-0.1,2.6-0.1C1417.1,746.9,1416.3,747,1415.4,747L1415.4,747z M1415.4,747"/>
		<path class="st1" d="M1697.5,654.5c-10.5-11.9-28.7-13.1-40.7-2.5c-58.1,51.3-130.1,83.3-206.4,92.5c0.3,18.6,1,38,2.2,57.7
			c89.6-9.8,174.2-46.9,242.3-107C1706.9,684.6,1708,666.4,1697.5,654.5L1697.5,654.5z M1697.5,654.5"/>
		<path class="st1" d="M1452.5,802.1c-3.7,0.4-7.4,0.7-11.1,1.1C1445.1,802.8,1448.8,802.5,1452.5,802.1L1452.5,802.1z
			 M1452.5,802.1"/>
		<path class="st1" d="M1439.7,803.3c-3.1,0.3-6.2,0.5-9.4,0.6C1433.4,803.8,1436.6,803.6,1439.7,803.3L1439.7,803.3z M1439.7,803.3
			"/>
	</g>
</g>
</svg>
